<svg width="1856" height="414" viewBox="0 0 1856 414" fill="none" xmlns="http://www.w3.org/2000/svg">
<path d="M195.318 45.4121C194.407 44.9564 192.926 47.8047 190.875 53.957C189.052 60.1094 186.66 68.0846 183.697 77.8828C180.735 87.681 177.431 98.7324 173.785 111.037C170.367 123.342 166.607 135.533 162.506 147.609C158.632 159.686 154.645 170.965 150.543 181.447C146.441 191.929 142.34 200.246 138.238 206.398C134.365 212.551 130.605 215.969 126.959 216.652C123.541 217.108 120.351 213.462 117.389 205.715C113.743 200.246 109.641 192.727 105.084 183.156C100.527 173.586 95.6276 163.218 90.3867 152.053C85.3737 140.887 80.0189 129.38 74.3223 117.531C68.8535 105.454 63.2708 94.2891 57.5742 84.0352C51.8776 73.7812 46.2949 64.8945 40.8262 57.375C35.3574 49.6276 30.1165 44.2728 25.1035 41.3105C25.1035 59.084 26.1289 78.5664 28.1797 99.7578C30.2305 120.949 32.3952 142.482 34.6738 164.357C37.1803 186.005 39.459 207.424 41.5098 228.615C43.5605 249.807 44.5859 269.403 44.5859 287.404C45.7253 289.683 45.7253 291.962 44.5859 294.24C43.6745 296.519 42.1934 298.228 40.1426 299.367C38.0918 300.507 35.6992 300.734 32.9648 300.051C30.2305 299.367 27.724 297.316 25.4453 293.898C22.2552 271.112 19.9766 247.87 18.6094 224.172C17.2422 200.474 15.875 176.662 14.5078 152.736C13.1406 128.811 11.4316 104.999 9.38086 81.3008C7.55794 57.6029 4.70964 34.2467 0.835938 11.2324C0.608073 6.67513 1.4056 3.82682 3.22852 2.6875C5.05143 1.54818 7.33008 0.978516 10.0645 0.978516C20.3184 3.94076 29.5469 9.40951 37.75 17.3848C45.9531 25.1322 53.3587 34.3607 59.9668 45.0703C66.8027 55.5521 72.9551 67.0592 78.4238 79.5918C84.1204 92.1243 89.7031 104.657 95.1719 117.189C100.641 129.494 106.109 141.343 111.578 152.736C117.047 163.902 123.085 173.586 129.693 181.789C130.605 181.789 131.402 181.447 132.086 180.764C132.997 179.852 134.137 177.688 135.504 174.27C136.871 170.624 138.808 165.155 141.314 157.863C143.821 150.572 147.125 140.432 151.227 127.443C155.556 114.455 160.911 98.1628 167.291 78.5664C173.671 58.7422 181.419 34.7025 190.533 6.44727C190.989 5.08008 192.128 3.94076 193.951 3.0293C195.774 1.88997 197.711 1.32031 199.762 1.32031C202.04 1.32031 204.091 2.11784 205.914 3.71289C207.737 5.08008 208.99 7.58659 209.674 11.2324C211.952 32.196 214.003 54.4128 215.826 77.8828C217.877 101.125 220.042 124.937 222.32 149.318C224.599 173.7 227.219 198.423 230.182 223.488C233.144 248.326 236.79 272.821 241.119 296.975C240.663 300.165 239.638 302.329 238.043 303.469C236.448 304.836 234.511 305.406 232.232 305.178C229.954 304.95 227.447 304.152 224.713 302.785C222.206 301.646 219.814 300.165 217.535 298.342L195.318 45.4121ZM332.721 298.342L257.184 126.418C255.361 123.684 254.905 120.949 255.816 118.215C256.728 115.253 258.323 112.974 260.602 111.379C262.88 109.784 265.501 109.214 268.463 109.67C271.653 109.898 274.501 111.721 277.008 115.139L339.898 265.529L369.635 95.6562C371.002 94.9727 372.597 94.403 374.42 93.9473C376.471 93.4915 378.408 93.3776 380.23 93.6055C382.281 93.8333 384.104 94.5169 385.699 95.6562C387.294 96.7956 388.32 98.6185 388.775 101.125C387.636 110.24 385.927 121.861 383.648 135.988C381.37 150.116 378.863 164.699 376.129 179.738C373.395 194.549 370.66 208.791 367.926 222.463C365.419 235.907 363.482 246.617 362.115 254.592C361.204 259.377 360.064 265.871 358.697 274.074C357.33 282.049 355.735 290.822 353.912 300.393C352.317 309.963 350.494 319.875 348.443 330.129C346.62 340.611 344.798 350.637 342.975 360.207C341.38 369.777 339.671 378.436 337.848 386.184C336.253 394.159 334.885 400.539 333.746 405.324C333.29 408.059 331.923 410.109 329.645 411.477C327.366 412.844 324.859 413.413 322.125 413.186C319.391 412.958 316.77 412.046 314.264 410.451C311.985 408.856 310.732 406.577 310.504 403.615L332.721 298.342ZM580.865 43.7031C579.726 39.8294 578.814 36.4115 578.131 33.4492C577.675 30.2591 577.675 26.8411 578.131 23.1953C578.359 22.056 578.587 20.8027 578.814 19.4355C579.27 18.0684 579.84 17.043 580.523 16.3594C581.435 15.4479 582.574 14.8783 583.941 14.6504C585.309 14.1947 587.132 14.4225 589.41 15.334C590.777 16.0176 592.145 17.2708 593.512 19.0938C594.879 20.6888 596.018 22.6257 596.93 24.9043C598.069 27.1829 598.98 29.3477 599.664 31.3984C600.348 33.4492 600.803 35.1582 601.031 36.5254C607.184 32.8796 614.02 29.2337 621.539 25.5879C629.059 21.7142 636.806 18.5241 644.781 16.0176C652.984 13.2832 661.188 11.3464 669.391 10.207C677.594 8.83984 685.455 8.61198 692.975 9.52344C695.481 9.7513 698.329 10.4349 701.52 11.5742C704.938 12.4857 708.014 13.8529 710.748 15.6758C713.71 17.2708 716.103 19.3216 717.926 21.8281C719.977 24.1068 720.774 26.8411 720.318 30.0312C720.318 36.1836 718.951 42.5638 716.217 49.1719C713.71 55.7799 710.406 62.388 706.305 68.9961C702.203 75.6042 697.532 82.0983 692.291 88.4785C687.278 94.8587 682.265 100.897 677.252 106.594C672.467 112.062 667.91 117.076 663.58 121.633C659.251 126.19 655.947 129.95 653.668 132.912C661.415 129.95 670.53 127.443 681.012 125.393C691.493 123.114 701.747 122.316 711.773 123C722.027 123.684 731.142 126.19 739.117 130.52C747.32 134.849 752.789 141.913 755.523 151.711C756.207 157.635 755.068 164.357 752.105 171.877C749.143 179.169 744.928 186.802 739.459 194.777C733.99 202.753 727.496 210.842 719.977 219.045C712.685 227.02 704.938 234.768 696.734 242.287C688.759 249.807 680.67 256.757 672.467 263.137C664.264 269.517 656.63 275.1 649.566 279.885C642.73 284.442 636.692 287.974 631.451 290.48C626.21 292.759 622.451 293.671 620.172 293.215L611.969 279.543C613.108 279.771 616.754 277.948 622.906 274.074C629.059 269.973 636.35 264.732 644.781 258.352C653.44 251.743 662.669 244.338 672.467 236.135C682.265 227.704 691.38 219.273 699.811 210.842C708.469 202.411 715.761 194.322 721.686 186.574C727.61 178.599 731.028 171.649 731.939 165.725C733.079 157.749 730.914 152.053 725.445 148.635C720.204 144.989 713.027 143.166 703.912 143.166C694.798 143.166 684.658 144.761 673.492 147.951C662.327 150.913 651.731 154.901 641.705 159.914C631.679 164.699 622.906 170.282 615.387 176.662C607.867 183.042 603.196 189.65 601.373 196.486C600.462 203.55 599.892 210.842 599.664 218.361C599.436 225.881 599.208 233.514 598.98 241.262C598.98 248.781 598.867 256.301 598.639 263.82C598.639 271.34 598.183 278.518 597.271 285.354C596.588 290.367 595.562 294.468 594.195 297.658C593.056 300.848 589.752 301.988 584.283 301.076C583.827 301.076 583.03 300.962 581.891 300.734C580.751 300.507 580.182 300.279 580.182 300.051L580.865 43.7031ZM601.715 70.3633C601.031 74.9206 600.462 80.7311 600.006 87.7949C599.778 94.8587 599.664 102.15 599.664 109.67C599.664 117.189 599.892 124.481 600.348 131.545C601.031 138.609 601.943 144.533 603.082 149.318C607.184 145.9 612.766 141.115 619.83 134.963C627.122 128.811 634.755 121.975 642.73 114.455C650.934 106.708 658.909 98.6185 666.656 90.1875C674.404 81.7565 680.784 73.6673 685.797 65.9199C691.038 57.9447 694.342 50.7669 695.709 44.3867C697.076 37.7786 695.481 32.5378 690.924 28.6641C686.822 28.2083 681.809 28.2083 675.885 28.6641C670.188 28.8919 664.15 29.6895 657.77 31.0566C651.389 32.196 645.009 33.9049 638.629 36.1836C632.249 38.4622 626.438 41.3105 621.197 44.7285C615.956 47.9186 611.513 51.6784 607.867 56.0078C604.449 60.3372 602.398 65.1224 601.715 70.3633ZM811.578 296.633C802.464 295.493 794.944 291.848 789.02 285.695C783.323 279.543 778.766 272.023 775.348 263.137C771.93 254.25 769.651 244.566 768.512 234.084C767.6 223.374 767.372 212.893 767.828 202.639C768.512 186.916 771.36 171.877 776.373 157.521C781.614 143.166 787.994 130.747 795.514 120.266C803.261 109.556 811.692 101.353 820.807 95.6562C830.149 89.7318 839.264 87.4531 848.15 88.8203C857.493 90.1875 865.012 94.6309 870.709 102.15C876.633 109.67 881.191 118.898 884.381 129.836C887.571 140.773 889.508 152.736 890.191 165.725C890.875 178.485 890.761 190.79 889.85 202.639C888.71 216.083 885.748 228.615 880.963 240.236C876.178 251.857 870.139 261.883 862.848 270.314C855.784 278.745 847.695 285.354 838.58 290.139C829.693 294.696 820.693 296.861 811.578 296.633ZM844.732 108.303C837.213 107.391 830.149 109.784 823.541 115.48C817.161 120.949 811.35 128.355 806.109 137.697C801.096 146.812 796.881 157.294 793.463 169.143C790.045 180.764 787.766 192.271 786.627 203.664C785.715 211.867 785.374 220.298 785.602 228.957C785.829 237.616 786.855 245.477 788.678 252.541C790.729 259.605 793.805 265.415 797.906 269.973C802.236 274.302 807.932 276.467 814.996 276.467C820.693 276.695 826.617 274.758 832.77 270.656C839.15 266.555 845.074 261.086 850.543 254.25C856.012 247.186 860.797 239.211 864.898 230.324C869.228 221.438 872.076 212.323 873.443 202.98C875.038 193.182 875.38 183.156 874.469 172.902C873.785 162.421 872.076 152.736 869.342 143.85C866.835 134.963 863.417 127.329 859.088 120.949C854.986 114.341 850.201 110.126 844.732 108.303ZM945.221 296.633C936.106 295.493 928.587 291.848 922.662 285.695C916.965 279.543 912.408 272.023 908.99 263.137C905.572 254.25 903.294 244.566 902.154 234.084C901.243 223.374 901.015 212.893 901.471 202.639C902.154 186.916 905.003 171.877 910.016 157.521C915.257 143.166 921.637 130.747 929.156 120.266C936.904 109.556 945.335 101.353 954.449 95.6562C963.792 89.7318 972.906 87.4531 981.793 88.8203C991.135 90.1875 998.655 94.6309 1004.35 102.15C1010.28 109.67 1014.83 118.898 1018.02 129.836C1021.21 140.773 1023.15 152.736 1023.83 165.725C1024.52 178.485 1024.4 190.79 1023.49 202.639C1022.35 216.083 1019.39 228.615 1014.61 240.236C1009.82 251.857 1003.78 261.883 996.49 270.314C989.426 278.745 981.337 285.354 972.223 290.139C963.336 294.696 954.335 296.861 945.221 296.633ZM978.375 108.303C970.855 107.391 963.792 109.784 957.184 115.48C950.803 120.949 944.993 128.355 939.752 137.697C934.739 146.812 930.523 157.294 927.105 169.143C923.688 180.764 921.409 192.271 920.27 203.664C919.358 211.867 919.016 220.298 919.244 228.957C919.472 237.616 920.497 245.477 922.32 252.541C924.371 259.605 927.447 265.415 931.549 269.973C935.878 274.302 941.575 276.467 948.639 276.467C954.335 276.695 960.26 274.758 966.412 270.656C972.792 266.555 978.717 261.086 984.186 254.25C989.654 247.186 994.439 239.211 998.541 230.324C1002.87 221.438 1005.72 212.323 1007.09 202.98C1008.68 193.182 1009.02 183.156 1008.11 172.902C1007.43 162.421 1005.72 152.736 1002.98 143.85C1000.48 134.963 997.06 127.329 992.73 120.949C988.629 114.341 983.844 110.126 978.375 108.303ZM1037.51 13.2832C1042.75 8.04232 1046.85 5.8776 1049.81 6.78906C1053 7.70052 1055.39 10.7767 1056.99 16.0176L1057.67 206.398L1146.2 86.7695C1150.07 86.7695 1153.26 87.4531 1155.77 88.8203C1158.5 89.9596 1159.87 92.8079 1159.87 97.3652L1069.63 221.779L1170.12 271.682C1170.81 272.593 1171.6 274.188 1172.52 276.467C1173.65 278.518 1174.22 280.682 1174.22 282.961C1174.22 285.012 1173.43 287.062 1171.83 289.113C1170.24 290.936 1167.27 291.962 1162.95 292.189L1059.72 238.186V293.898C1058.13 297.772 1056.42 300.279 1054.6 301.418C1052.77 302.557 1050.95 302.899 1049.13 302.443C1047.3 302.215 1045.48 301.418 1043.66 300.051C1042.06 298.684 1040.58 297.43 1039.21 296.291L1037.51 13.2832ZM1369.39 283.303C1368.71 234.54 1367.91 193.98 1367 161.623C1366.09 129.038 1365.29 102.72 1364.61 82.668C1363.92 62.388 1363.35 47.4629 1362.9 37.8926C1362.44 28.0944 1362.21 21.7142 1362.21 18.752C1362.21 15.334 1363.12 12.5996 1364.95 10.5488C1367 8.49805 1369.16 7.58659 1371.44 7.81445C1373.72 7.81445 1375.88 9.06771 1377.94 11.5742C1379.99 13.8529 1381.13 17.6126 1381.35 22.8535L1392.29 273.391L1540.63 241.945C1555.9 241.945 1559.2 248.439 1550.54 261.428L1378.96 298C1372.58 298 1369.39 293.101 1369.39 283.303ZM1571.39 88.1367C1572.76 87.4531 1574.35 86.8835 1576.18 86.4277C1578 85.972 1579.71 85.7441 1581.3 85.7441C1583.13 85.7441 1584.84 86.0859 1586.43 86.7695C1588.03 87.4531 1589.28 88.7064 1590.19 90.5293C1590.19 105.34 1590.31 121.405 1590.53 138.723C1590.99 155.812 1591.44 173.244 1591.9 191.018C1592.58 208.563 1593.15 225.881 1593.61 242.971C1594.07 260.061 1594.52 275.897 1594.98 290.48C1595.2 293.898 1594.29 296.519 1592.24 298.342C1590.19 300.165 1587.91 301.076 1585.41 301.076C1583.13 301.076 1580.96 300.165 1578.91 298.342C1576.86 296.747 1575.84 294.126 1575.84 290.48L1571.39 88.1367ZM1567.29 18.4102C1567.29 15.4479 1568.32 13.5111 1570.37 12.5996C1572.42 11.4603 1574.7 10.8906 1577.2 10.8906C1582.22 10.8906 1585.29 12.5996 1586.43 16.0176C1587.8 19.2077 1588.48 22.9674 1588.48 27.2969C1587.12 30.0312 1585.29 31.9681 1583.01 33.1074C1580.74 34.2467 1578.34 34.4746 1575.84 33.791C1573.56 33.1074 1571.51 31.5124 1569.68 29.0059C1568.09 26.4993 1567.29 22.9674 1567.29 18.4102ZM1618.9 273.391C1623.23 276.809 1628.47 278.632 1634.62 278.859C1641.01 279.087 1647.61 278.29 1654.45 276.467C1661.51 274.416 1668.58 271.568 1675.64 267.922C1682.93 264.048 1689.54 259.833 1695.46 255.275C1701.62 250.718 1706.86 245.933 1711.19 240.92C1715.74 235.679 1718.82 230.78 1720.42 226.223C1722.01 221.438 1721.9 217.108 1720.07 213.234C1718.25 209.361 1714.15 206.285 1707.77 204.006C1696.15 206.74 1684.53 208.905 1672.91 210.5C1661.29 212.095 1650.8 212.095 1641.46 210.5C1632.35 208.905 1624.94 205.145 1619.24 199.221C1613.55 193.296 1610.93 184.182 1611.38 171.877C1612.07 160.028 1615.26 148.977 1620.95 138.723C1626.88 128.241 1634.28 119.354 1643.17 112.062C1652.28 104.771 1662.31 99.1882 1673.25 95.3145C1684.41 91.4408 1695.69 89.8457 1707.09 90.5293C1709.36 90.7572 1711.42 90.985 1713.24 91.2129C1715.29 91.2129 1717.11 91.5547 1718.71 92.2383C1720.3 92.9219 1721.44 93.9473 1722.12 95.3145C1723.04 96.6816 1723.38 98.7324 1723.15 101.467C1722.92 104.885 1721.67 107.619 1719.39 109.67C1717.11 111.721 1714.04 112.518 1710.16 112.062C1696.72 109.328 1684.64 109.898 1673.93 113.771C1663.22 117.645 1654.34 123.114 1647.27 130.178C1640.21 137.014 1635.19 144.761 1632.23 153.42C1629.27 162.079 1628.81 169.94 1630.87 177.004C1635.19 185.207 1640.78 190.448 1647.61 192.727C1654.68 194.777 1662.08 195.461 1669.83 194.777C1677.81 194.094 1685.89 192.954 1694.1 191.359C1702.3 189.536 1709.71 188.967 1716.31 189.65C1722.92 190.106 1728.39 192.613 1732.72 197.17C1737.05 201.499 1739.44 209.589 1739.9 221.438C1739.67 228.957 1737.16 236.249 1732.38 243.312C1727.59 250.148 1721.44 256.643 1713.92 262.795C1706.63 268.719 1698.43 274.188 1689.31 279.201C1680.2 283.986 1671.08 287.974 1661.97 291.164C1653.08 294.354 1644.65 296.519 1636.68 297.658C1628.93 298.798 1622.66 298.684 1617.88 297.316C1612.64 292.759 1609.9 288.316 1609.67 283.986C1609.45 279.429 1612.52 275.897 1618.9 273.391ZM1769.29 135.646L1737.85 146.242C1735.34 145.559 1733.29 144.305 1731.7 142.482C1729.87 140.66 1728.62 138.723 1727.94 136.672C1727.25 134.621 1727.14 132.684 1727.59 130.861C1727.82 129.038 1728.73 127.671 1730.33 126.76L1769.29 112.062L1768.61 15.334C1769.29 12.3717 1770.77 10.207 1773.05 8.83984C1775.33 7.47266 1777.61 6.90299 1779.89 7.13086C1782.4 7.13086 1784.67 7.92839 1786.72 9.52344C1788.78 10.8906 1790.14 12.7135 1790.83 14.9922C1790.37 22.056 1790.03 29.5755 1789.8 37.5508C1789.57 45.2982 1789.35 53.1595 1789.12 61.1348C1789.12 68.8822 1789.23 76.5156 1789.46 84.0352C1789.69 91.3268 1790.14 98.0488 1790.83 104.201L1843.8 82.668C1846.99 81.7565 1849.5 82.0983 1851.32 83.6934C1853.15 85.0605 1854.29 86.9974 1854.74 89.5039C1855.43 91.7826 1855.31 94.0612 1854.4 96.3398C1853.49 98.6185 1851.89 100.214 1849.62 101.125L1790.83 127.785C1790.83 130.064 1790.94 135.533 1791.17 144.191C1791.4 152.622 1791.62 162.648 1791.85 174.27C1792.08 185.891 1792.31 198.309 1792.54 211.525C1792.76 224.742 1792.88 237.16 1792.88 248.781C1793.1 260.402 1793.22 270.542 1793.22 279.201C1793.45 287.632 1793.56 292.987 1793.56 295.266C1793.1 302.785 1790.94 306.545 1787.07 306.545C1783.19 306.545 1778.98 304.722 1774.42 301.076L1769.29 135.646Z" fill="black"/>
</svg>
